<svg width="35" height="35" version="1.1" viewBox="0 0 42.607 41.555" xmlns="http://www.w3.org/2000/svg">
 <g transform="translate(-83.82 -93.532)">
  <path d="m105.12 93.532c-11.764 0-21.304 9.5373-21.304 21.304 0 9.4121 6.1041 17.398 14.569 20.215 1.0647 0.1972 1.4556-0.46214 1.4556-1.0248 0-0.50765-0.01976-2.1862-0.02893-3.9663-5.9267 1.2887-7.1773-2.5135-7.1773-2.5135-0.96908-2.462-2.3654-3.1172-2.3654-3.1172-1.9329-1.3222 0.1457-1.295 0.1457-1.295 2.1392 0.15029 3.2657 2.1957 3.2657 2.1957 1.9001 3.2565 4.9837 2.3149 6.1994 1.7706 0.19156-1.3765 0.7433-2.3167 1.3526-2.8487-4.7318-0.53833-9.706-2.3654-9.706-10.528 0-2.3255 0.8322-4.2259 2.195-5.7178-0.22119-0.53693-0.95038-2.7037 0.20673-5.6381 0 0 1.7889-0.57221 5.8596 2.184 1.6993-0.47201 3.5218-0.70873 5.3322-0.71719 1.8105 8e-3 3.6343 0.24518 5.3368 0.71719 4.0661-2.7562 5.8526-2.184 5.8526-2.184 1.1596 2.9344 0.43038 5.1012 0.20919 5.6381 1.366 1.4919 2.1922 3.3923 2.1922 5.7178 0 8.1827-4.9837 9.984-9.7275 10.511 0.76412 0.66111 1.445 1.9576 1.445 3.9451 0 2.8504-0.0243 5.1446-0.0243 5.8462 0 0.56726 0.38311 1.2315 1.463 1.0224 8.4603-2.8201 14.557-10.803 14.557-20.212 0-11.766-9.538-21.304-21.304-21.304" fill="#fff" fill-rule="evenodd"/>
 </g>
</svg>
